<?xml version="1.0" encoding="UTF-8"?>
<!-- Created with Inkscape (http://www.inkscape.org/) -->
<svg width="48" height="48" version="1.1" viewBox="0 0 12.7 12.7" xmlns="http://www.w3.org/2000/svg" xmlns:cc="http://creativecommons.org/ns#" xmlns:dc="http://purl.org/dc/elements/1.1/" xmlns:rdf="http://www.w3.org/1999/02/22-rdf-syntax-ns#">
 <defs>
  <clipPath id="clipPath70">
   <path d="m4.9925 4.5895c1.6553-0.82763 1.6553-2.1695 0-2.9971-1.6553-0.82763-4.3389-0.82763-5.9942 0-1.6553 0.82763-1.6553 2.1695 0 2.9971 1.6553 0.82763 4.3389 0.82763 5.9942 0z" fill="#500" stroke-width=".0033094"/>
  </clipPath>
  <clipPath id="clipPath74">
   <path d="m4.9925 4.5895c1.6553-0.82763 1.6553-2.1695 0-2.9971-1.6553-0.82763-4.3389-0.82763-5.9942 0-1.6553 0.82763-1.6553 2.1695 0 2.9971 1.6553 0.82763 4.3389 0.82763 5.9942 0z" fill="#500" stroke-width=".0033094"/>
  </clipPath>
 </defs>
 <metadata>
  <rdf:RDF>
   <cc:Work rdf:about="">
    <dc:format>image/svg+xml</dc:format>
    <dc:type rdf:resource="http://purl.org/dc/dcmitype/StillImage"/>
    <dc:title/>
   </cc:Work>
  </rdf:RDF>
 </metadata>
 <path d="m10.092 10.092c2.0665-2.0666 2.0665-5.417 4e-6 -7.4835-2.0665-2.0666-5.417-2.0666-7.4835 0-2.0665 2.0665-2.0665 5.417 4e-6 7.4835 2.0665 2.0666 5.417 2.0666 7.4835 1e-5z" fill="#500" stroke-width=".0058431"/>
 <g transform="translate(-.0023476 -.0016775)" stroke-width=".2626">
  <path transform="matrix(.90512 0 0 1.8102 4.5463 .75633)" d="m2.1415 6.0056-5.2917-1e-7 2.6458-4.5827z" clip-path="url(#clipPath74)" fill="#a7a7a7"/>
  <path transform="matrix(-.90512 0 0 -1.8102 8.1584 11.947)" d="m2.1415 6.0056-5.2917-1e-7 2.6458-4.5827z" clip-path="url(#clipPath70)" fill="#464646"/>
 </g>
</svg>
