<?xml version="1.0" encoding="UTF-8"?>
<!-- Created with Inkscape (http://www.inkscape.org/) -->
<svg width="48" height="48" version="1.1" viewBox="0 0 12.7 12.7" xmlns="http://www.w3.org/2000/svg" xmlns:cc="http://creativecommons.org/ns#" xmlns:dc="http://purl.org/dc/elements/1.1/" xmlns:rdf="http://www.w3.org/1999/02/22-rdf-syntax-ns#">
 <defs>
  <clipPath id="clipPath69">
   <path d="m6.4084 11.099c1.835-1.0594 2.4636-3.4056 1.4042-5.2405-1.0594-1.8349-3.4057-2.4636-5.2406-1.4042-1.835 1.0594-2.4636 3.4056-1.4042 5.2405 1.0594 1.8349 3.4057 2.4636 5.2406 1.4042z" fill="#500" stroke-width=".0042361"/>
  </clipPath>
  <clipPath id="clipPath74">
   <path d="m2.5719 4.4549c-1.835 1.0594-2.4636 3.4056-1.4042 5.2405 1.0594 1.8349 3.4057 2.4636 5.2406 1.4042 1.8349-1.0594 2.4636-3.4056 1.4042-5.2405-1.0594-1.8349-3.4057-2.4636-5.2406-1.4042z" fill="#500" stroke-width=".0042361"/>
  </clipPath>
 </defs>
 <metadata>
  <rdf:RDF>
   <cc:Work rdf:about="">
    <dc:format>image/svg+xml</dc:format>
    <dc:type rdf:resource="http://purl.org/dc/dcmitype/StillImage"/>
    <dc:title/>
   </cc:Work>
  </rdf:RDF>
 </metadata>
 <path d="m10.092 10.092c2.0665-2.0666 2.0665-5.417 4e-6 -7.4835-2.0665-2.0666-5.417-2.0666-7.4835 0-2.0665 2.0665-2.0665 5.417 4e-6 7.4835 2.0665 2.0666 5.417 2.0666 7.4835 1e-5z" fill="#500" stroke-width=".0058431"/>
 <rect transform="rotate(-15)" x="-.99891" y="2.683" width="4.2513" height="10.225" clip-path="url(#clipPath69)" fill="#a7a7a7" stroke-width=".20516"/>
 <rect transform="rotate(-15)" x="5.7279" y="2.6467" width="4.2513" height="10.225" clip-path="url(#clipPath74)" fill="#464646" stroke-width=".20516"/>
</svg>
