<?xml version="1.0" encoding="UTF-8"?>
<!-- Generator: Assembly 2.2 - http://assemblyapp.co -->
<svg width="48" height="48" version="1.1" viewBox="0 0 48 48" xmlns="http://www.w3.org/2000/svg" xmlns:cc="http://creativecommons.org/ns#" xmlns:dc="http://purl.org/dc/elements/1.1/" xmlns:rdf="http://www.w3.org/1999/02/22-rdf-syntax-ns#">
 <metadata>
  <rdf:RDF>
   <cc:Work rdf:about="">
    <dc:format>image/svg+xml</dc:format>
    <dc:type rdf:resource="http://purl.org/dc/dcmitype/StillImage"/>
    <dc:title/>
   </cc:Work>
  </rdf:RDF>
 </metadata>
 <path d="m44 24c0-11.046-8.9541-20-20-20s-20 8.9541-20 20 8.9541 20 20 20 20-8.9541 20-20z" style="fill:#550019;stroke-width:.022084"/>
 <rect transform="rotate(-45)" x="-8.4783" y="23.889" width=".017122" height=".034244" rx="1.5338" style="fill:#6c5353;stroke-width:.77486"/>
 <rect transform="matrix(-.70711 .70711 .70711 .70711 0 0)" x="-8.4756" y="23.889" width=".017122" height=".034244" rx="1.5338" style="fill:#6c5353;stroke-width:.77486"/>
 <g transform="matrix(.78363 -.78363 .78363 .78363 -11.994 25.622)">
  <rect transform="scale(-1,1)" x="-25.654" y="13.204" width="3.3082" height="21.594" ry="1.6541" style="fill:#6c5353;stroke-width:1.6551"/>
  <rect transform="matrix(0,-1,-1,0,0,0)" x="-16.512" y="-35.382" width="3.3082" height="22.764" ry="1.7437" style="fill:#6c5353;stroke-width:1.6993"/>
 </g>
</svg>
